<svg width="13" height="13" viewBox="0 0 13 13" fill="none" xmlns="http://www.w3.org/2000/svg">
<g clip-path="url(#clip0_0_1130)">
<path d="M4.87501 11.9167C5.17416 11.9167 5.41668 11.6742 5.41668 11.375C5.41668 11.0759 5.17416 10.8334 4.87501 10.8334C4.57586 10.8334 4.33334 11.0759 4.33334 11.375C4.33334 11.6742 4.57586 11.9167 4.87501 11.9167Z" stroke="black" stroke-linecap="round" stroke-linejoin="round"/>
<path d="M10.8333 11.9167C11.1325 11.9167 11.375 11.6742 11.375 11.375C11.375 11.0759 11.1325 10.8334 10.8333 10.8334C10.5342 10.8334 10.2917 11.0759 10.2917 11.375C10.2917 11.6742 10.5342 11.9167 10.8333 11.9167Z" stroke="black" stroke-linecap="round" stroke-linejoin="round"/>
<path d="M0.541656 0.541626H2.70832L4.15999 7.79454C4.20952 8.04392 4.34519 8.26794 4.54324 8.42737C4.7413 8.5868 4.98912 8.6715 5.24332 8.66663H10.5083C10.7625 8.6715 11.0103 8.5868 11.2084 8.42737C11.4065 8.26794 11.5421 8.04392 11.5917 7.79454L12.4583 3.24996H3.24999" stroke="black" stroke-linecap="round" stroke-linejoin="round"/>
</g>
<defs>
<clipPath id="clip0_0_1130">
<rect width="13" height="13" fill="white"/>
</clipPath>
</defs>
</svg>
