<svg width="20" height="21" viewBox="0 0 20 21" fill="none" xmlns="http://www.w3.org/2000/svg">
<path d="M5.95 2.51562C8.51792 2.51562 10 4.66796 10 4.66796C10 4.66796 11.485 2.51562 14.05 2.51562C16.705 2.51562 19 4.58562 19 7.46562C19 11.6961 12.5604 16.1353 10.3651 18.0759C10.1582 18.2588 9.84179 18.2588 9.63488 18.0759C7.44056 16.1365 1 11.6959 1 7.46562C1 4.58562 3.295 2.51562 5.95 2.51562Z" fill="white" fill-opacity="0.8"/>
<path d="M1 7.38049C1 4.7186 3.15017 2.51562 5.86486 2.51562C7.98685 2.51562 9.35921 3.87438 10 4.70235C10.6408 3.87438 12.0132 2.51562 14.1351 2.51562C16.8506 2.51562 19 4.71865 19 7.38049C19 8.5455 18.5328 9.70185 17.8534 10.7806C17.1716 11.8632 16.252 12.9059 15.29 13.8533C13.9567 15.1664 12.4757 16.3543 11.4134 17.2063C10.9618 17.5685 10.5859 17.87 10.3293 18.0946C10.1407 18.2595 9.85926 18.2595 9.67075 18.0946C9.41405 17.87 9.03815 17.5685 8.58659 17.2063C7.52431 16.3543 6.04326 15.1664 4.70997 13.8533C3.74802 12.9059 2.82836 11.8632 2.14659 10.7806C1.46724 9.70185 1 8.5455 1 7.38049ZM5.86486 3.51562C3.70929 3.51562 2 5.264 2 7.38049C2 8.28306 2.36553 9.2517 2.99277 10.2477C3.61759 11.2398 4.47833 12.2216 5.41165 13.1408C6.71033 14.4198 8.08423 15.5206 9.13396 16.3617C9.45728 16.6208 9.74985 16.8552 10 17.0626C10.2501 16.8552 10.5427 16.6208 10.866 16.3617C11.9158 15.5206 13.2897 14.4198 14.5883 13.1408C15.5217 12.2216 16.3824 11.2398 17.0072 10.2477C17.6345 9.2517 18 8.28306 18 7.38049C18 5.26396 16.2914 3.51562 14.1351 3.51562C12.0406 3.51562 10.8181 5.21773 10.5033 5.7259C10.2727 6.09812 9.72727 6.09811 9.4967 5.72589C9.1819 5.21772 7.95944 3.51562 5.86486 3.51562Z" fill="#15151A"/>
</svg>
